<svg width="19" height="19" viewBox="0 0 19 19" fill="none" xmlns="http://www.w3.org/2000/svg">
<path fill-rule="evenodd" clip-rule="evenodd" d="M9.5 18C4.80558 18 1 14.1944 1 9.5C1 4.80558 4.80558 1 9.5 1C14.1944 1 18 4.80558 18 9.5C18 14.1944 14.1944 18 9.5 18ZM15.2178 13.46C15.9976 12.3362 16.4546 10.9714 16.4546 9.5C16.4546 5.65911 13.3409 2.54545 9.50002 2.54545C5.65913 2.54545 2.54547 5.65911 2.54547 9.5C2.54547 10.9714 3.00245 12.3362 3.78223 13.46C4.65145 12.3118 6.6934 11.8187 9.49574 11.8182C7.76753 11.8162 6.40911 10.6008 6.40911 7.95455C6.40911 6.22036 7.62932 4.86364 9.50002 4.86364C11.3655 4.86364 12.5909 6.34849 12.5909 8.10909C12.5909 10.6433 11.214 11.8182 9.50002 11.8182C12.3046 11.8182 14.3481 12.3112 15.2178 13.46ZM14.1091 14.708C13.8829 13.8948 12.2582 13.3636 9.50001 13.3636C6.74186 13.3636 5.11711 13.8948 4.89094 14.708C6.11802 15.7948 7.73197 16.4545 9.50002 16.4545C11.2681 16.4545 12.882 15.7948 14.1091 14.708ZM7.95453 7.95455C7.95453 9.70806 8.58678 10.2727 9.49998 10.2727C10.41 10.2727 11.0454 9.73058 11.0454 8.10909C11.0454 7.14351 10.4394 6.40909 9.49998 6.40909C8.52151 6.40909 7.95453 7.0395 7.95453 7.95455Z" fill="#596472"/>
<path d="M15.2178 13.46L15.0185 13.6109L15.2266 13.8858L15.4232 13.6025L15.2178 13.46ZM3.78223 13.46L3.57683 13.6025L3.77341 13.8858L3.98155 13.6109L3.78223 13.46ZM9.49574 11.8182L9.49578 12.0682L9.49603 11.5682L9.49574 11.8182ZM14.1091 14.708L14.2748 14.8952L14.3918 14.7916L14.3499 14.641L14.1091 14.708ZM4.89094 14.708L4.65008 14.641L4.60822 14.7915L4.72519 14.8951L4.89094 14.708ZM0.75 9.5C0.75 14.3325 4.66751 18.25 9.5 18.25V17.75C4.94365 17.75 1.25 14.0563 1.25 9.5H0.75ZM9.5 0.75C4.66751 0.75 0.75 4.66751 0.75 9.5H1.25C1.25 4.94365 4.94365 1.25 9.5 1.25V0.75ZM18.25 9.5C18.25 4.66751 14.3325 0.75 9.5 0.75V1.25C14.0563 1.25 17.75 4.94365 17.75 9.5H18.25ZM9.5 18.25C14.3325 18.25 18.25 14.3325 18.25 9.5H17.75C17.75 14.0563 14.0563 17.75 9.5 17.75V18.25ZM16.2046 9.5C16.2046 10.9189 15.7641 12.2341 15.0124 13.3174L15.4232 13.6025C16.2311 12.4382 16.7046 11.024 16.7046 9.5H16.2046ZM9.50002 2.79545C13.2028 2.79545 16.2046 5.79718 16.2046 9.5H16.7046C16.7046 5.52104 13.479 2.29545 9.50002 2.29545V2.79545ZM2.79547 9.5C2.79547 5.79718 5.7972 2.79545 9.50002 2.79545V2.29545C5.52106 2.29545 2.29547 5.52104 2.29547 9.5H2.79547ZM3.98762 13.3174C3.23595 12.2341 2.79547 10.9189 2.79547 9.5H2.29547C2.29547 11.024 2.76895 12.4382 3.57683 13.6025L3.98762 13.3174ZM3.98155 13.6109C4.36974 13.0981 5.0381 12.7091 5.98042 12.4497C6.92022 12.191 8.1068 12.0684 9.49578 12.0682L9.49569 11.5682C8.08234 11.5684 6.84678 11.6926 5.84771 11.9677C4.85117 12.242 4.06393 12.6737 3.5829 13.3091L3.98155 13.6109ZM9.49603 11.5682C8.69301 11.5673 7.99397 11.2863 7.49247 10.7133C6.98807 10.137 6.65911 9.23689 6.65911 7.95455H6.15911C6.15911 9.31844 6.50935 10.3492 7.11622 11.0426C7.72599 11.7393 8.57026 12.0671 9.49545 12.0682L9.49603 11.5682ZM6.65911 7.95455C6.65911 6.35103 7.77468 5.11364 9.50002 5.11364V4.61364C7.48396 4.61364 6.15911 6.08969 6.15911 7.95455H6.65911ZM9.50002 5.11364C11.2064 5.11364 12.3409 6.46452 12.3409 8.10909H12.8409C12.8409 6.23247 11.5247 4.61364 9.50002 4.61364V5.11364ZM12.3409 8.10909C12.3409 9.33198 12.0092 10.1927 11.5038 10.7452C10.9999 11.296 10.2983 11.5682 9.50002 11.5682V12.0682C10.4157 12.0682 11.2596 11.7529 11.8727 11.0827C12.4842 10.4143 12.8409 9.42045 12.8409 8.10909H12.3409ZM9.50002 12.0682C10.8901 12.0682 12.0776 12.1906 13.0182 12.4493C13.9613 12.7087 14.6301 13.0978 15.0185 13.6109L15.4171 13.3091C14.9359 12.6734 14.1481 12.2416 13.1508 11.9673C12.151 11.6922 10.9145 11.5682 9.50002 11.5682V12.0682ZM14.3499 14.641C14.1993 14.0993 13.6161 13.7291 12.8261 13.4915C12.0144 13.2472 10.8917 13.1136 9.50001 13.1136V13.6136C10.8665 13.6136 11.9353 13.7456 12.682 13.9703C13.4504 14.2014 13.7927 14.5035 13.8682 14.775L14.3499 14.641ZM9.50001 13.1136C8.10836 13.1136 6.98567 13.2472 6.17396 13.4915C5.38392 13.7291 4.80075 14.0993 4.65008 14.641L5.1318 14.775C5.2073 14.5035 5.54959 14.2014 6.31801 13.9703C7.06476 13.7456 8.13352 13.6136 9.50001 13.6136V13.1136ZM9.50002 16.2045C7.79536 16.2045 6.23982 15.5687 5.0567 14.5208L4.72519 14.8951C5.99622 16.0209 7.66858 16.7045 9.50002 16.7045V16.2045ZM13.9433 14.5209C12.7602 15.5687 11.2047 16.2045 9.50002 16.2045V16.7045C11.3315 16.7045 13.0038 16.0209 14.2748 14.8952L13.9433 14.5209ZM9.49998 10.0227C9.09913 10.0227 8.7971 9.90224 8.58428 9.62052C8.3602 9.32387 8.20453 8.80955 8.20453 7.95455H7.70453C7.70453 8.85306 7.86498 9.49783 8.18532 9.9219C8.51693 10.3609 8.98763 10.5227 9.49998 10.5227V10.0227ZM10.7954 8.10909C10.7954 8.89442 10.6403 9.36791 10.4193 9.64208C10.2073 9.90514 9.90311 10.0227 9.49998 10.0227V10.5227C10.0069 10.5227 10.4754 10.3692 10.8086 9.95585C11.1329 9.55358 11.2954 8.94525 11.2954 8.10909H10.7954ZM9.49998 6.65909C9.89999 6.65909 10.2175 6.81341 10.4376 7.06255C10.6603 7.31452 10.7954 7.67779 10.7954 8.10909H11.2954C11.2954 7.57481 11.1275 7.08808 10.8123 6.73144C10.4946 6.37198 10.0393 6.15909 9.49998 6.15909V6.65909ZM8.20453 7.95455C8.20453 7.54861 8.3295 7.22932 8.5397 7.01282C8.74873 6.79751 9.06601 6.65909 9.49998 6.65909V6.15909C8.95547 6.15909 8.50003 6.33588 8.18095 6.66453C7.86304 6.992 7.70453 7.44544 7.70453 7.95455H8.20453Z" fill="white"/>
</svg>
