<svg width="27" height="30" viewBox="0 0 27 30" fill="none" xmlns="http://www.w3.org/2000/svg">
<path fill-rule="evenodd" clip-rule="evenodd" d="M16.4166 17.1667C16.4166 13.4457 14.3648 10.8632 11.7099 10.0879C11.6138 9.83915 11.4619 9.60792 11.2553 9.41388C10.5497 8.75091 9.45023 8.75091 8.74462 9.41388C8.53856 9.60749 8.38684 9.83814 8.29068 10.0863C5.63238 10.8582 3.58331 13.4351 3.58331 17.1667C3.58331 19.5811 3.09655 20.9339 2.19544 21.9144C2.04478 22.0783 1.63659 22.4538 1.36009 22.7082L1.36008 22.7082L1.36007 22.7082L1.35977 22.7085C1.2291 22.8287 1.1279 22.9218 1.09728 22.9526L0.833313 23.2203V26.3462H6.41396C6.60266 27.3198 7.1309 27.9711 8.08616 28.554C9.26128 29.2711 10.7387 29.2711 11.9138 28.554C12.7568 28.0396 13.3221 27.2489 13.5514 26.3462H19.1666V23.2203L18.9027 22.9526C18.8749 22.9244 18.7777 22.8348 18.6506 22.7175C18.3749 22.4632 17.9587 22.0793 17.8057 21.9122C16.904 20.9272 16.4166 19.5726 16.4166 17.1667ZM11.592 26.3462H8.33038C8.45989 26.5872 8.68063 26.7691 9.04116 26.9891C9.62989 27.3484 10.3701 27.3484 10.9588 26.9891C11.2314 26.8227 11.4445 26.6026 11.592 26.3462ZM16.4535 23.1501C16.6464 23.3608 17.0598 23.746 17.3333 23.9976V24.5129H2.66665V23.998C2.93805 23.7493 3.35271 23.3645 3.54526 23.155C4.76968 21.8228 5.41665 20.0246 5.41665 17.1667C5.41665 13.7016 7.55502 11.678 9.99998 11.678C12.438 11.678 14.5833 13.712 14.5833 17.1667C14.5833 20.0155 15.2305 21.8142 16.4535 23.1501Z" fill="white"/>
<rect x="11" width="16" height="16" rx="8" fill="#F15555"/>
<path d="M19.8412 7.02L21.7372 4.86V3.6H15.8572V5.16H19.4332L17.7052 7.116V8.4H18.5932C19.6972 8.4 20.1652 8.796 20.1652 9.432C20.1652 10.116 19.5652 10.512 18.5932 10.512C17.7172 10.512 16.8292 10.236 16.1932 9.756L15.4372 11.244C16.2532 11.82 17.4652 12.144 18.6412 12.144C21.0292 12.144 22.1212 10.848 22.1212 9.432C22.1212 8.196 21.3532 7.26 19.8412 7.02Z" fill="white"/>
</svg>
