<svg width="21" height="21" viewBox="0 0 21 21" fill="none" xmlns="http://www.w3.org/2000/svg">
<path d="M10.3504 13.3998C11.7587 13.3998 12.9004 12.2581 12.9004 10.8498C12.9004 9.44148 11.7587 8.2998 10.3504 8.2998C8.94209 8.2998 7.80042 9.44148 7.80042 10.8498C7.80042 12.2581 8.94209 13.3998 10.3504 13.3998Z" stroke="#475464" stroke-width="1.3" stroke-linecap="round" stroke-linejoin="round"/>
<path d="M16.658 13.4C16.5448 13.6564 16.511 13.9408 16.561 14.2165C16.6111 14.4922 16.7427 14.7467 16.9389 14.947L16.9899 14.998C17.1482 15.1559 17.2737 15.3434 17.3594 15.5498C17.445 15.7561 17.4891 15.9773 17.4891 16.2008C17.4891 16.4242 17.445 16.6454 17.3594 16.8517C17.2737 17.0581 17.1482 17.2456 16.9899 17.4035C16.8319 17.5616 16.6442 17.687 16.4375 17.7725C16.2309 17.8581 16.0095 17.9021 15.7858 17.9021C15.5621 17.9021 15.3407 17.8581 15.134 17.7725C14.9274 17.687 14.7397 17.5616 14.5816 17.4035L14.5306 17.3525C14.33 17.1565 14.0753 17.0251 13.7992 16.9751C13.5232 16.9251 13.2385 16.9589 12.9818 17.072C12.7301 17.1797 12.5155 17.3587 12.3643 17.5867C12.2131 17.8148 12.1319 18.082 12.1308 18.3555V18.5C12.1308 18.9509 11.9515 19.3833 11.6323 19.7021C11.3132 20.0209 10.8803 20.2 10.4289 20.2C9.97748 20.2 9.54458 20.0209 9.2254 19.7021C8.90622 19.3833 8.7269 18.9509 8.7269 18.5V18.4235C8.72031 18.1422 8.62914 17.8693 8.46524 17.6404C8.30133 17.4115 8.07227 17.2371 7.80784 17.14C7.55117 17.0269 7.26646 16.9931 6.9904 17.0431C6.71435 17.0931 6.45962 17.2245 6.25906 17.4205L6.208 17.4715C6.04993 17.6296 5.86223 17.755 5.65561 17.8405C5.449 17.9261 5.22753 17.9701 5.00386 17.9701C4.7802 17.9701 4.55873 17.9261 4.35211 17.8405C4.1455 17.755 3.95779 17.6296 3.79973 17.4715C3.64148 17.3136 3.51595 17.1261 3.4303 16.9197C3.34465 16.7134 3.30056 16.4922 3.30056 16.2688C3.30056 16.0453 3.34465 15.8241 3.4303 15.6178C3.51595 15.4114 3.64148 15.2239 3.79973 15.066L3.85078 15.015C4.04697 14.8147 4.17857 14.5602 4.22862 14.2845C4.27868 14.0088 4.24489 13.7244 4.13161 13.468C4.02374 13.2166 3.84462 13.0022 3.61631 12.8512C3.388 12.7001 3.12046 12.6191 2.84663 12.618H2.70196C2.25057 12.618 1.81767 12.4389 1.49849 12.1201C1.17931 11.8013 1 11.3689 1 10.918C1 10.4671 1.17931 10.0347 1.49849 9.71592C1.81767 9.39711 2.25057 9.218 2.70196 9.218H2.77855C3.06022 9.21142 3.33339 9.12035 3.56256 8.95663C3.79172 8.79292 3.96628 8.56413 4.06353 8.3C4.17681 8.04363 4.2106 7.75924 4.16055 7.4835C4.11049 7.20776 3.97889 6.95333 3.78271 6.753L3.73165 6.702C3.57341 6.54412 3.44787 6.35663 3.36222 6.15025C3.27657 5.94387 3.23248 5.72266 3.23248 5.49925C3.23248 5.27584 3.27657 5.05463 3.36222 4.84825C3.44787 4.64187 3.57341 4.45438 3.73165 4.2965C3.88971 4.13844 4.07742 4.01305 4.28404 3.9275C4.49065 3.84195 4.71212 3.79791 4.93578 3.79791C5.15945 3.79791 5.38092 3.84195 5.58753 3.9275C5.79415 4.01305 5.98186 4.13844 6.13992 4.2965L6.19098 4.3475C6.39154 4.54346 6.64627 4.67491 6.92232 4.7249C7.19838 4.7749 7.4831 4.74115 7.73977 4.628H7.80784C8.05954 4.52025 8.2742 4.34134 8.42539 4.1133C8.57659 3.88525 8.65773 3.61802 8.65882 3.3445V3.2C8.65882 2.74913 8.83814 2.31673 9.15732 1.99792C9.4765 1.67911 9.9094 1.5 10.3608 1.5C10.8122 1.5 11.2451 1.67911 11.5643 1.99792C11.8834 2.31673 12.0627 2.74913 12.0627 3.2V3.2765C12.0638 3.55002 12.145 3.81725 12.2962 4.0453C12.4474 4.27334 12.662 4.45225 12.9137 4.56C13.1704 4.67315 13.4551 4.7069 13.7312 4.6569C14.0072 4.60691 14.262 4.47546 14.4625 4.2795L14.5136 4.2285C14.6716 4.07044 14.8593 3.94505 15.066 3.8595C15.2726 3.77395 15.494 3.72991 15.7177 3.72991C15.9414 3.72991 16.1628 3.77395 16.3695 3.8595C16.5761 3.94505 16.7638 4.07044 16.9218 4.2285C17.0801 4.38638 17.2056 4.57387 17.2913 4.78025C17.3769 4.98663 17.421 5.20784 17.421 5.43125C17.421 5.65466 17.3769 5.87587 17.2913 6.08225C17.2056 6.28863 17.0801 6.47612 16.9218 6.634L16.8708 6.685C16.6746 6.88533 16.543 7.13976 16.4929 7.4155C16.4429 7.69124 16.4767 7.97563 16.59 8.232V8.3C16.6978 8.5514 16.877 8.76581 17.1053 8.91684C17.3336 9.06786 17.6011 9.14891 17.8749 9.15H18.0196C18.471 9.15 18.9039 9.32911 19.2231 9.64792C19.5423 9.96673 19.7216 10.3991 19.7216 10.85C19.7216 11.3009 19.5423 11.7333 19.2231 12.0521C18.9039 12.3709 18.471 12.55 18.0196 12.55H17.943C17.6692 12.5511 17.4016 12.6321 17.1733 12.7832C16.945 12.9342 16.7659 13.1486 16.658 13.4V13.4Z" stroke="#475464" stroke-width="1.3" stroke-linecap="round" stroke-linejoin="round"/>
</svg>
