<svg width="31" height="20" viewBox="0 0 31 20" fill="none" xmlns="http://www.w3.org/2000/svg">
<path d="M30.4347 13.8316C30.3588 12.0869 30.0554 10.1526 29.6003 8.332C29.1452 6.58731 28.5762 4.9564 27.8935 3.70477C25.2386 -0.960385 22.356 -0.239751 18.9046 0.670524C17.8046 0.936021 16.6289 1.23945 15.4152 1.35323H15.0359C13.8222 1.23945 12.6464 0.936021 11.5465 0.670524C8.09505 -0.201822 5.21252 -0.960384 2.55755 3.7427C1.87484 4.99433 1.26799 6.62524 0.850785 8.36993C0.395648 10.1905 0.0922234 12.1248 0.0163672 13.8695C-0.059489 15.8038 0.130151 17.2072 0.547361 18.1933C0.96457 19.1036 1.57142 19.6725 2.36791 19.9001C3.08854 20.0897 3.92296 20.0139 4.79531 19.6346C6.2745 19.0277 7.98127 17.7382 9.65011 16.1831C10.8259 15.0453 13.0257 14.4764 15.2255 14.4764C17.4254 14.4764 19.6252 15.0453 20.801 16.1831C22.4698 17.7382 24.1766 19.0277 25.6558 19.6346C26.5281 19.9759 27.3625 20.0897 28.0832 19.9001C28.8417 19.6725 29.4865 19.1415 29.9037 18.1554C30.3209 17.2072 30.5106 15.8038 30.4347 13.8316ZM28.6142 17.6244C28.3866 18.1554 28.0832 18.4588 27.7039 18.5726C27.2867 18.6864 26.7557 18.6105 26.1488 18.3829C24.8213 17.852 23.2663 16.6762 21.7492 15.2349C20.3079 13.7936 17.7667 13.073 15.2255 13.073C12.6844 13.073 10.1432 13.7936 8.66397 15.1591C7.10892 16.6003 5.55387 17.814 4.26432 18.3071C3.65747 18.5347 3.12647 18.6484 2.70926 18.4967C2.32998 18.3829 2.02656 18.0795 1.79899 17.5485C1.49556 16.8279 1.34385 15.6521 1.41971 13.9074C1.49556 12.2765 1.76106 10.418 2.2162 8.67335C2.63341 7.04244 3.1644 5.52532 3.80918 4.38748C5.89522 0.632596 8.32262 1.23945 11.2052 1.99801C12.3809 2.30143 13.5946 2.60486 14.9221 2.71864C14.96 2.71864 14.96 2.71864 14.998 2.71864H15.4152C15.4531 2.71864 15.4531 2.71864 15.491 2.71864C16.8564 2.60486 18.0701 2.30143 19.2459 1.99801C22.1285 1.27737 24.5558 0.632596 26.6419 4.38748C27.2867 5.52532 27.8177 7.00452 28.2349 8.67335C28.6521 10.418 28.9555 12.2386 29.0314 13.9074C29.1072 15.6521 28.9555 16.8279 28.6142 17.6244Z" fill="#475464"/>
<path d="M11.7361 6.43558C11.3569 6.09422 10.9017 5.82873 10.3707 5.7908C10.3328 5.29773 10.1052 4.80467 9.76387 4.46331L9.72594 4.42539C9.30873 4.00818 8.77774 3.78061 8.17089 3.78061C7.56404 3.78061 6.99512 4.04611 6.61584 4.42539C6.27449 4.76674 6.00899 5.25981 5.97106 5.7908C5.44007 5.82873 4.98493 6.0563 4.60565 6.39765L4.56772 6.43558C4.15051 6.85279 3.92294 7.38378 3.92294 7.99063C3.92294 8.59748 4.18844 9.1664 4.56772 9.54568C4.947 9.92496 5.40214 10.1525 5.97106 10.1905C6.00899 10.7215 6.23656 11.2145 6.61584 11.5559C7.03305 11.9731 7.56404 12.2006 8.17089 12.2006C8.77774 12.2006 9.34666 11.9352 9.72594 11.5559C10.0673 11.1766 10.3328 10.7215 10.3707 10.1905C10.9017 10.1525 11.3948 9.92496 11.7361 9.54568C12.1533 9.12847 12.3809 8.59748 12.3809 7.99063C12.3809 7.38378 12.1154 6.81486 11.7361 6.43558ZM10.7879 8.55955C10.6362 8.71126 10.4466 8.78712 10.219 8.78712H9.68801C9.30873 8.78712 8.96738 9.09054 8.96738 9.50775V10.0008C8.96738 10.2284 8.89152 10.418 8.73981 10.5697C8.5881 10.7215 8.39846 10.7973 8.17089 10.7973C7.94332 10.7973 7.75368 10.7215 7.60197 10.5697C7.45026 10.418 7.3744 10.2284 7.3744 10.0008V9.46983C7.3744 9.09054 7.07098 8.74919 6.65377 8.74919H6.12277C5.8952 8.74919 5.70556 8.67334 5.55385 8.52162C5.44007 8.40784 5.32628 8.2182 5.32628 7.99063C5.32628 7.76306 5.40214 7.57342 5.55385 7.42171C5.55385 7.42171 5.55385 7.42171 5.59178 7.38378C5.74349 7.26999 5.93313 7.19414 6.12277 7.19414H6.65377C7.03305 7.19414 7.3744 6.89071 7.3744 6.4735V5.94251C7.3744 5.71494 7.45026 5.5253 7.60197 5.37359C7.75368 5.22188 7.94332 5.14602 8.17089 5.14602C8.39846 5.14602 8.5881 5.22188 8.73981 5.37359C8.73981 5.37359 8.73981 5.37359 8.77774 5.41152C8.89152 5.56323 8.96738 5.75287 8.96738 5.94251V6.4735C8.96738 6.85279 9.27081 7.19414 9.68801 7.19414H10.219C10.4466 7.19414 10.6362 7.26999 10.7879 7.42171C10.9396 7.57342 11.0155 7.76306 11.0155 7.99063C11.0155 8.2182 10.9396 8.40784 10.7879 8.55955Z" fill="#475464"/>
<path d="M21.8249 6.62524C22.558 6.62524 23.1523 6.03091 23.1523 5.29776C23.1523 4.56461 22.558 3.97028 21.8249 3.97028C21.0917 3.97028 20.4974 4.56461 20.4974 5.29776C20.4974 6.03091 21.0917 6.62524 21.8249 6.62524Z" fill="#475464"/>
<path d="M21.8249 12.011C22.558 12.011 23.1523 11.4167 23.1523 10.6835C23.1523 9.95038 22.558 9.35605 21.8249 9.35605C21.0917 9.35605 20.4974 9.95038 20.4974 10.6835C20.4974 11.4167 21.0917 12.011 21.8249 12.011Z" fill="#475464"/>
<path d="M19.1324 9.31815C19.8656 9.31815 20.4599 8.72381 20.4599 7.99066C20.4599 7.25751 19.8656 6.66318 19.1324 6.66318C18.3993 6.66318 17.805 7.25751 17.805 7.99066C17.805 8.72381 18.3993 9.31815 19.1324 9.31815Z" fill="#475464"/>
<path d="M24.5179 9.31815C25.251 9.31815 25.8453 8.72381 25.8453 7.99066C25.8453 7.25751 25.251 6.66318 24.5179 6.66318C23.7847 6.66318 23.1904 7.25751 23.1904 7.99066C23.1904 8.72381 23.7847 9.31815 24.5179 9.31815Z" fill="#475464"/>
</svg>
