<svg width="20" height="18" viewBox="0 0 20 18" fill="none" xmlns="http://www.w3.org/2000/svg">
<path fill-rule="evenodd" clip-rule="evenodd" d="M13.9102 1.44008e-05C12.6154 0 11.7809 0.154245 10.8241 0.62254C10.4699 0.795918 10.1376 1.00472 9.82899 1.24831C9.53226 1.01837 9.21323 0.819161 8.87367 0.651214C7.89838 0.168833 7.02098 0 5.77269 0C2.42947 0 0 2.77007 0 6.36773C0 9.08469 1.5149 11.7092 4.33661 14.2471C5.81772 15.5792 7.70878 16.8974 9.06309 17.5987L9.83796 18L10.6128 17.5987C11.9671 16.8974 13.8582 15.5792 15.3393 14.2471C18.161 11.7092 19.6759 9.08469 19.6759 6.36773C19.6759 2.80815 17.2235 0.0137359 13.9102 1.44008e-05ZM17.8871 6.36771C17.8871 8.49631 16.6226 10.687 14.1431 12.9171C12.7912 14.133 11.0533 15.348 9.83787 15.9855C8.62247 15.348 6.88453 14.133 5.53266 12.9171C3.05309 10.687 1.78863 8.49631 1.78863 6.36771C1.78863 3.70953 3.47328 1.7887 5.77259 1.7887C6.7651 1.7887 7.3767 1.90639 8.08057 2.25452C8.49633 2.46016 8.8638 2.73169 9.18188 3.07101L9.83996 3.77302L10.492 3.06544C10.8173 2.71253 11.1901 2.43482 11.6104 2.22911C12.2937 1.89468 12.8671 1.7887 13.9064 1.78871C16.1773 1.79812 17.8871 3.74642 17.8871 6.36771Z" fill="#475464"/>
</svg>
