<svg width="16" height="16" viewBox="0 0 16 16" fill="none" xmlns="http://www.w3.org/2000/svg">
<path d="M3.40002 1.93332C3.40002 1.38103 2.95231 0.933319 2.40002 0.933319C1.84774 0.933319 1.40002 1.38103 1.40002 1.93332H3.40002ZM1.40002 12.2C1.40002 12.7523 1.84774 13.2 2.40002 13.2C2.95231 13.2 3.40002 12.7523 3.40002 12.2H1.40002ZM9.00002 9.40022C9.00002 8.84793 8.55231 8.40022 8.00002 8.40022C7.44774 8.40022 7.00002 8.84793 7.00002 9.40022H9.00002ZM7.00002 14.0667C7.00002 14.6189 7.44774 15.0667 8.00002 15.0667C8.55231 15.0667 9.00002 14.6189 9.00002 14.0667H7.00002ZM9.00002 1.93332C9.00002 1.38103 8.55231 0.933319 8.00002 0.933319C7.44774 0.933319 7.00002 1.38103 7.00002 1.93332H9.00002ZM7.00002 6.60022C7.00002 7.1525 7.44774 7.60022 8.00002 7.60022C8.55231 7.60022 9.00002 7.1525 9.00002 6.60022H7.00002ZM14.6 3.79999C14.6 3.2477 14.1523 2.79999 13.6 2.79999C13.0477 2.79999 12.6 3.2477 12.6 3.79999H14.6ZM12.6 14.0667C12.6 14.6189 13.0477 15.0667 13.6 15.0667C14.1523 15.0667 14.6 14.6189 14.6 14.0667H12.6ZM1.40002 1.93332V12.2H3.40002V1.93332H1.40002ZM7.00002 9.40022V14.0667H9.00002V9.40022H7.00002ZM7.00002 1.93332V6.60022H9.00002V1.93332H7.00002ZM12.6 3.79999V14.0667H14.6V3.79999H12.6Z" fill="white" fill-opacity="0.83"/>
<circle cx="2.4" cy="13.6" r="1.4" stroke="white" stroke-opacity="0.83" stroke-width="2" stroke-linecap="round"/>
<circle cx="13.6" cy="2.4" r="1.4" stroke="white" stroke-opacity="0.83" stroke-width="2" stroke-linecap="round"/>
<circle cx="7.99998" cy="8.00001" r="1.4" stroke="white" stroke-opacity="0.83" stroke-width="2" stroke-linecap="round"/>
</svg>
