<svg width="18" height="18" viewBox="0 0 18 18" fill="none" xmlns="http://www.w3.org/2000/svg">
<circle cx="6.99992" cy="7" r="2.66667" stroke="white" stroke-width="1.6" stroke-linecap="round"/>
<path fill-rule="evenodd" clip-rule="evenodd" d="M1.66663 14.9728V16.3333H12.3333V14.9728C12.3091 12.0523 9.93541 9.6907 6.99996 9.66667C4.06451 9.6907 1.69079 12.0523 1.66663 14.9728Z" stroke="white" stroke-width="1.6" stroke-linecap="round"/>
<path d="M14.8 1.66667C14.8 1.22484 14.4418 0.866666 14 0.866666C13.5581 0.866666 13.2 1.22484 13.2 1.66667H14.8ZM13.2 6.33333C13.2 6.77516 13.5581 7.13333 14 7.13333C14.4418 7.13333 14.8 6.77516 14.8 6.33333H13.2ZM11.6666 3.2C11.2248 3.2 10.8666 3.55817 10.8666 4C10.8666 4.44183 11.2248 4.8 11.6666 4.8V3.2ZM16.3333 4.8C16.7751 4.8 17.1333 4.44183 17.1333 4C17.1333 3.55817 16.7751 3.2 16.3333 3.2V4.8ZM13.2 1.66667V6.33333H14.8V1.66667H13.2ZM11.6666 4.8H16.3333V3.2H11.6666V4.8Z" fill="white"/>
</svg>
