<svg width="14" height="14" viewBox="0 0 14 14" fill="none" xmlns="http://www.w3.org/2000/svg">
<path fill-rule="evenodd" clip-rule="evenodd" d="M11.6 4.34C11.051 4.78059 10.2583 4.73729 9.76049 4.23951C9.26271 3.74172 9.21941 2.94905 9.66 2.4L8.26 1L1 8.26L2.4 9.66C2.94905 9.21941 3.74172 9.26271 4.23951 9.76049C4.73729 10.2583 4.78059 11.051 4.34 11.6L5.74 13L13 5.74L11.6 4.34Z" stroke="white" stroke-linecap="round"/>
<path d="M7.77348 3.16644C7.57821 2.97118 7.26163 2.97118 7.06637 3.16644C6.87111 3.36171 6.87111 3.67829 7.06637 3.87355L7.77348 3.16644ZM7.34637 4.15355C7.54163 4.34881 7.85821 4.34881 8.05348 4.15355C8.24874 3.95829 8.24874 3.64171 8.05348 3.44644L7.34637 4.15355ZM8.89349 4.26644C8.69823 4.07118 8.38165 4.07118 8.18639 4.26644C7.99113 4.46171 7.99113 4.77829 8.18639 4.97355L8.89349 4.26644ZM8.46639 5.25355C8.66165 5.44881 8.97823 5.44881 9.17349 5.25355C9.36876 5.05829 9.36876 4.74171 9.17349 4.54644L8.46639 5.25355ZM10.0135 5.38644C9.81825 5.19118 9.50167 5.19118 9.30641 5.38644C9.11115 5.5817 9.11115 5.89828 9.30641 6.09355L10.0135 5.38644ZM9.58641 6.37355C9.78167 6.56881 10.0983 6.56881 10.2935 6.37355C10.4888 6.17828 10.4888 5.8617 10.2935 5.66644L9.58641 6.37355ZM11.1135 6.50645C10.9183 6.31118 10.6017 6.31118 10.4064 6.50645C10.2111 6.70171 10.2111 7.01829 10.4064 7.21355L11.1135 6.50645ZM10.6864 7.49355C10.8817 7.68881 11.1983 7.68881 11.3935 7.49355C11.5888 7.29829 11.5888 6.98171 11.3935 6.78645L10.6864 7.49355ZM3.31351 6.50645C3.11825 6.31118 2.80167 6.31118 2.60641 6.50645C2.41115 6.70171 2.41115 7.01829 2.60641 7.21355L3.31351 6.50645ZM2.88641 7.49355C3.08167 7.68881 3.39825 7.68881 3.59351 7.49355C3.78878 7.29829 3.78878 6.98171 3.59351 6.78645L2.88641 7.49355ZM4.41351 7.62644C4.21825 7.43118 3.90167 7.43118 3.70641 7.62644C3.51115 7.8217 3.51115 8.13829 3.70641 8.33355L4.41351 7.62644ZM3.98641 8.61355C4.18167 8.80881 4.49825 8.80881 4.69351 8.61355C4.88878 8.41829 4.88878 8.1017 4.69351 7.90644L3.98641 8.61355ZM5.53353 8.74645C5.33827 8.55119 5.02169 8.55119 4.82643 8.74645C4.63117 8.94171 4.63117 9.25829 4.82643 9.45355L5.53353 8.74645ZM5.10643 9.73355C5.30169 9.92882 5.61827 9.92882 5.81353 9.73355C6.0088 9.53829 6.0088 9.22171 5.81353 9.02645L5.10643 9.73355ZM6.65355 9.84645C6.45829 9.65119 6.14171 9.65119 5.94645 9.84645C5.75118 10.0417 5.75118 10.3583 5.94645 10.5536L6.65355 9.84645ZM6.22645 10.8336C6.42171 11.0288 6.73829 11.0288 6.93355 10.8336C7.12882 10.6383 7.12882 10.3217 6.93355 10.1264L6.22645 10.8336ZM7.06637 3.87355L7.34637 4.15355L8.05348 3.44644L7.77348 3.16644L7.06637 3.87355ZM8.18639 4.97355L8.46639 5.25355L9.17349 4.54644L8.89349 4.26644L8.18639 4.97355ZM9.30641 6.09355L9.58641 6.37355L10.2935 5.66644L10.0135 5.38644L9.30641 6.09355ZM10.4064 7.21355L10.6864 7.49355L11.3935 6.78645L11.1135 6.50645L10.4064 7.21355ZM2.60641 7.21355L2.88641 7.49355L3.59351 6.78645L3.31351 6.50645L2.60641 7.21355ZM3.70641 8.33355L3.98641 8.61355L4.69351 7.90644L4.41351 7.62644L3.70641 8.33355ZM4.82643 9.45355L5.10643 9.73355L5.81353 9.02645L5.53353 8.74645L4.82643 9.45355ZM5.94645 10.5536L6.22645 10.8336L6.93355 10.1264L6.65355 9.84645L5.94645 10.5536Z" fill="white"/>
</svg>
