<svg width="17" height="18" viewBox="0 0 17 18" fill="none" xmlns="http://www.w3.org/2000/svg">
<path fill-rule="evenodd" clip-rule="evenodd" d="M14.25 5.675C13.5637 6.22574 12.5728 6.17161 11.9506 5.54938C11.3284 4.92715 11.2743 3.93631 11.825 3.25L10.075 1.5L1 10.575L2.75 12.325C3.43631 11.7743 4.42715 11.8284 5.04938 12.4506C5.67161 13.0728 5.72574 14.0637 5.175 14.75L6.925 16.5L16 7.425L14.25 5.675Z" stroke="#475464" stroke-linecap="round"/>
<path d="M9.37855 4.29635C9.18329 4.10109 8.86671 4.10109 8.67144 4.29635C8.47618 4.49161 8.47618 4.80819 8.67144 5.00346L9.37855 4.29635ZM9.02144 5.35346C9.21671 5.54872 9.53329 5.54872 9.72855 5.35346C9.92381 5.15819 9.92381 4.84161 9.72855 4.64635L9.02144 5.35346ZM10.7786 5.67135C10.5833 5.47609 10.2667 5.47609 10.0714 5.67135C9.87618 5.86661 9.87618 6.18319 10.0714 6.37846L10.7786 5.67135ZM10.4214 6.72846C10.6167 6.92372 10.9333 6.92372 11.1286 6.72846C11.3238 6.53319 11.3238 6.21661 11.1286 6.02135L10.4214 6.72846ZM12.1786 7.07135C11.9833 6.87609 11.6667 6.87609 11.4714 7.07135C11.2762 7.26661 11.2762 7.58319 11.4714 7.77846L12.1786 7.07135ZM11.8214 8.12846C12.0167 8.32372 12.3333 8.32372 12.5286 8.12846C12.7238 7.93319 12.7238 7.61661 12.5286 7.42135L11.8214 8.12846ZM13.5536 8.47135C13.3583 8.27609 13.0417 8.27609 12.8464 8.47135C12.6512 8.66661 12.6512 8.98319 12.8464 9.17846L13.5536 8.47135ZM13.1964 9.52846C13.3917 9.72372 13.7083 9.72372 13.9036 9.52846C14.0988 9.33319 14.0988 9.01661 13.9036 8.82135L13.1964 9.52846ZM3.80355 8.47135C3.60829 8.27609 3.29171 8.27609 3.09644 8.47135C2.90118 8.66661 2.90118 8.98319 3.09644 9.17846L3.80355 8.47135ZM3.44644 9.52846C3.64171 9.72372 3.95829 9.72372 4.15355 9.52846C4.34881 9.33319 4.34881 9.01661 4.15355 8.82135L3.44644 9.52846ZM5.17855 9.87135C4.98329 9.67609 4.66671 9.67609 4.47144 9.87135C4.27618 10.0666 4.27618 10.3832 4.47144 10.5785L5.17855 9.87135ZM4.82144 10.9285C5.01671 11.1237 5.33329 11.1237 5.52855 10.9285C5.72381 10.7332 5.72381 10.4166 5.52855 10.2213L4.82144 10.9285ZM6.57855 11.2713C6.38329 11.0761 6.06671 11.0761 5.87144 11.2713C5.67618 11.4666 5.67618 11.7832 5.87144 11.9785L6.57855 11.2713ZM6.22144 12.3285C6.41671 12.5237 6.73329 12.5237 6.92855 12.3285C7.12381 12.1332 7.12381 11.8166 6.92855 11.6213L6.22144 12.3285ZM7.97855 12.6463C7.78329 12.4511 7.46671 12.4511 7.27144 12.6463C7.07618 12.8416 7.07618 13.1582 7.27144 13.3535L7.97855 12.6463ZM7.62144 13.7035C7.81671 13.8987 8.13329 13.8987 8.32855 13.7035C8.52381 13.5082 8.52381 13.1916 8.32855 12.9963L7.62144 13.7035ZM8.67144 5.00346L9.02144 5.35346L9.72855 4.64635L9.37855 4.29635L8.67144 5.00346ZM10.0714 6.37846L10.4214 6.72846L11.1286 6.02135L10.7786 5.67135L10.0714 6.37846ZM11.4714 7.77846L11.8214 8.12846L12.5286 7.42135L12.1786 7.07135L11.4714 7.77846ZM12.8464 9.17846L13.1964 9.52846L13.9036 8.82135L13.5536 8.47135L12.8464 9.17846ZM3.09644 9.17846L3.44644 9.52846L4.15355 8.82135L3.80355 8.47135L3.09644 9.17846ZM4.47144 10.5785L4.82144 10.9285L5.52855 10.2213L5.17855 9.87135L4.47144 10.5785ZM5.87144 11.9785L6.22144 12.3285L6.92855 11.6213L6.57855 11.2713L5.87144 11.9785ZM7.27144 13.3535L7.62144 13.7035L8.32855 12.9963L7.97855 12.6463L7.27144 13.3535Z" fill="#475464"/>
</svg>
