<svg width="22" height="20" viewBox="0 0 22 20" fill="none" xmlns="http://www.w3.org/2000/svg">
<mask id="path-1-inside-1" fill="white">
<path fill-rule="evenodd" clip-rule="evenodd" d="M4.88867 8L10.89 1.99867L16.8913 8H16.89V18H4.89001V8H4.88867ZM2.89001 9.99866L1.4132 11.4755L0 10.0623L9.47699 0.58529C10.2574 -0.195097 11.5226 -0.195097 12.303 0.58529L21.78 10.0623L20.3668 11.4755L18.89 9.99869V18C18.89 19.1046 17.9946 20 16.89 20H4.89001C3.78545 20 2.89001 19.1046 2.89001 18V9.99866Z"/>
</mask>
<path fill-rule="evenodd" clip-rule="evenodd" d="M4.88867 8L10.89 1.99867L16.8913 8H16.89V18H4.89001V8H4.88867ZM2.89001 9.99866L1.4132 11.4755L0 10.0623L9.47699 0.58529C10.2574 -0.195097 11.5226 -0.195097 12.303 0.58529L21.78 10.0623L20.3668 11.4755L18.89 9.99869V18C18.89 19.1046 17.9946 20 16.89 20H4.89001C3.78545 20 2.89001 19.1046 2.89001 18V9.99866Z" fill="#643FC0"/>
<path fill-rule="evenodd" clip-rule="evenodd" d="M4.88867 8L10.89 1.99867L16.8913 8H16.89V18H4.89001V8H4.88867ZM2.89001 9.99866L1.4132 11.4755L0 10.0623L9.47699 0.58529C10.2574 -0.195097 11.5226 -0.195097 12.303 0.58529L21.78 10.0623L20.3668 11.4755L18.89 9.99869V18C18.89 19.1046 17.9946 20 16.89 20H4.89001C3.78545 20 2.89001 19.1046 2.89001 18V9.99866Z" fill="#7555CF"/>
<path d="M10.89 1.99867L11.1021 1.78654L10.89 1.57441L10.6779 1.78654L10.89 1.99867ZM4.88867 8L4.67654 7.78787L4.16441 8.3H4.88867V8ZM16.8913 8V8.3H17.6156L17.1035 7.78787L16.8913 8ZM16.89 8V7.7H16.59V8H16.89ZM16.89 18V18.3H17.19V18H16.89ZM4.89001 18H4.59001V18.3H4.89001V18ZM4.89001 8H5.19001V7.7H4.89001V8ZM2.89001 9.99866H3.19001V9.27439L2.67788 9.78652L2.89001 9.99866ZM1.4132 11.4755L1.20107 11.6876L1.4132 11.8997L1.62533 11.6876L1.4132 11.4755ZM0 10.0623L-0.212132 9.85014L-0.424264 10.0623L-0.212132 10.2744L0 10.0623ZM9.47699 0.58529L9.68912 0.797422V0.797422L9.47699 0.58529ZM12.303 0.58529L12.0909 0.797422V0.797422L12.303 0.58529ZM21.78 10.0623L21.9921 10.2744L22.2043 10.0623L21.9921 9.85014L21.78 10.0623ZM20.3668 11.4755L20.1547 11.6876L20.3668 11.8997L20.5789 11.6876L20.3668 11.4755ZM18.89 9.99869L19.1021 9.78655L18.59 9.27442V9.99869H18.89ZM10.6779 1.78654L4.67654 7.78787L5.1008 8.21213L11.1021 2.2108L10.6779 1.78654ZM17.1035 7.78787L11.1021 1.78654L10.6779 2.2108L16.6792 8.21213L17.1035 7.78787ZM16.89 8.3H16.8913V7.7H16.89V8.3ZM17.19 18V8H16.59V18H17.19ZM4.89001 18.3H16.89V17.7H4.89001V18.3ZM4.59001 8V18H5.19001V8H4.59001ZM4.88867 8.3H4.89001V7.7H4.88867V8.3ZM2.67788 9.78652L1.20107 11.2633L1.62533 11.6876L3.10215 10.2108L2.67788 9.78652ZM1.62533 11.2633L0.212132 9.85014L-0.212132 10.2744L1.20107 11.6876L1.62533 11.2633ZM0.212132 10.2744L9.68912 0.797422L9.26485 0.373158L-0.212132 9.85014L0.212132 10.2744ZM9.68912 0.797422C10.3523 0.134193 11.4277 0.134193 12.0909 0.797422L12.5151 0.373158C11.6176 -0.524386 10.1624 -0.524386 9.26485 0.373158L9.68912 0.797422ZM12.0909 0.797422L21.5679 10.2744L21.9921 9.85014L12.5151 0.373158L12.0909 0.797422ZM21.5679 9.85014L20.1547 11.2633L20.5789 11.6876L21.9921 10.2744L21.5679 9.85014ZM20.5789 11.2633L19.1021 9.78655L18.6779 10.2108L20.1547 11.6876L20.5789 11.2633ZM18.59 9.99869V18H19.19V9.99869H18.59ZM18.59 18C18.59 18.9389 17.8289 19.7 16.89 19.7V20.3C18.1603 20.3 19.19 19.2703 19.19 18H18.59ZM16.89 19.7H4.89001V20.3H16.89V19.7ZM4.89001 19.7C3.95113 19.7 3.19001 18.9389 3.19001 18H2.59001C2.59001 19.2703 3.61976 20.3 4.89001 20.3V19.7ZM3.19001 18V9.99866H2.59001V18H3.19001Z" fill="white" mask="url(#path-1-inside-1)"/>
</svg>
