<svg width="17" height="17" viewBox="0 0 17 17" fill="none" xmlns="http://www.w3.org/2000/svg">
<path fill-rule="evenodd" clip-rule="evenodd" d="M9.27273 4.63636V1.5879C12.75 1.97229 15.4545 4.9203 15.4545 8.5C15.4545 12.3409 12.3409 15.4545 8.5 15.4545C4.65911 15.4545 1.54545 12.3409 1.54545 8.5C1.54545 6.62519 2.28972 4.87024 3.59163 3.57317L2.50087 2.47834C0.910767 4.06252 0 6.21008 0 8.5C0 13.1944 3.80558 17 8.5 17C13.1944 17 17 13.1944 17 8.5C17 3.80558 13.1944 0 8.5 0H7.72727V4.63636H9.27273ZM8.50001 6.95455C8.36157 6.95455 8.22738 6.97275 8.0997 7.00689L5.18278 4.08996L4.08997 5.18276L7.0069 8.09969C6.97276 8.22737 6.95456 8.36156 6.95456 8.5C6.95456 9.35353 7.64648 10.0455 8.50001 10.0455C9.35354 10.0455 10.0455 9.35353 10.0455 8.5C10.0455 7.64647 9.35354 6.95455 8.50001 6.95455Z" fill="#595959"/>
</svg>
